<svg width="89" height="89" viewBox="0 0 89 89" fill="none" xmlns="http://www.w3.org/2000/svg">
<path d="M55.625 7.41666H22.25C20.283 7.41666 18.3965 8.19806 17.0056 9.58896C15.6147 10.9798 14.8333 12.8663 14.8333 14.8333V74.1667C14.8333 76.1337 15.6147 78.0201 17.0056 79.411C18.3965 80.8019 20.283 81.5833 22.25 81.5833H66.75C68.717 81.5833 70.6035 80.8019 71.9944 79.411C73.3853 78.0201 74.1667 76.1337 74.1667 74.1667V25.9583L55.625 7.41666Z" fill="#0C2346" stroke="#174589" stroke-width="3" stroke-linecap="round" stroke-linejoin="round"/>
<path d="M51.9167 7.41666V22.25C51.9167 24.217 52.6981 26.1035 54.089 27.4944C55.4799 28.8853 57.3663 29.6667 59.3333 29.6667H74.1667" stroke="#174589" stroke-width="3" stroke-linecap="round" stroke-linejoin="round"/>
<path d="M44.5 44.5V66.75" stroke="#174589" stroke-width="3" stroke-linecap="round" stroke-linejoin="round"/>
<path d="M55.625 55.625L44.5 44.5L33.375 55.625" stroke="#174589" stroke-width="3" stroke-linecap="round" stroke-linejoin="round"/>
</svg>
